<svg width="882" height="283" viewBox="0 0 882 283" fill="none" xmlns="http://www.w3.org/2000/svg">
<g filter="url(#filter0_d_386_4037)">
<path d="M121.96 176.544V127.776L121 120.096H165.544C170.728 120.096 174.696 120.736 177.448 122.016C180.264 123.296 182.216 125.216 183.304 127.776C184.392 130.272 184.936 133.408 184.936 137.184V159.36C184.936 163.2 184.392 166.4 183.304 168.96C182.28 171.456 180.36 173.344 177.544 174.624C174.792 175.904 170.792 176.544 165.544 176.544H121.96ZM134.632 167.328H164.776C169.704 167.328 172.2 165.056 172.264 160.512V136.032C172.264 134.176 171.72 132.608 170.632 131.328C169.544 129.984 167.592 129.312 164.776 129.312H134.632V167.328ZM198.344 176.544V120.096H258.056V129.312H211.016V142.56H246.92V152.064H211.016V167.328H258.44L262.28 175.488C262.28 175.744 261.416 176 259.688 176.256C257.96 176.448 254.984 176.544 250.76 176.544H198.344ZM291.908 176.544L265.124 120.192H278.564L296.612 159.072L299.204 165.984H300.068L302.564 159.072L320.804 120.192H333.86L332.324 125.952L307.268 176.544H291.908ZM342.531 176.544V120.096H402.243V129.312H355.203V142.56H391.107V152.064H355.203V167.328H402.627L406.467 175.488C406.467 175.744 405.603 176 403.875 176.256C402.147 176.448 399.171 176.544 394.947 176.544H342.531ZM416.031 176.544L416.991 168.864V120.096H429.663V167.328H469.407L473.247 175.488C473.247 175.744 472.383 176 470.655 176.256C468.927 176.448 465.951 176.544 461.727 176.544H416.031ZM498.452 176.544C493.972 176.544 490.452 175.904 487.892 174.624C485.332 173.344 483.508 171.424 482.42 168.864C481.396 166.304 480.884 163.136 480.884 159.36V137.184C480.884 133.472 481.396 130.368 482.42 127.872C483.444 125.312 485.236 123.392 487.796 122.112C490.356 120.768 493.908 120.096 498.452 120.096H526.484C530.964 120.096 534.452 120.768 536.948 122.112C539.508 123.392 541.3 125.312 542.324 127.872C543.412 130.368 543.956 133.472 543.956 137.184V159.36C543.956 164.992 542.708 169.28 540.212 172.224C537.716 175.104 533.14 176.544 526.484 176.544H498.452ZM501.236 167.328H523.796C526.164 167.328 527.988 166.72 529.268 165.504C530.612 164.288 531.284 162.624 531.284 160.512V136.032C531.284 134.176 530.612 132.608 529.268 131.328C527.924 129.984 526.1 129.312 523.796 129.312H501.236C498.932 129.312 497.076 129.92 495.668 131.136C494.26 132.352 493.556 133.984 493.556 136.032V160.512C493.556 162.688 494.228 164.384 495.572 165.6C496.98 166.752 498.868 167.328 501.236 167.328ZM559.304 176.544V127.776L558.344 120H600.872C604.968 120 608.168 120.544 610.472 121.632C612.84 122.72 614.568 124.16 615.656 125.952C616.808 127.68 617.544 129.536 617.864 131.52C618.184 133.504 618.344 135.392 618.344 137.184V142.848C618.344 144.32 618.12 145.984 617.672 147.84C617.224 149.632 616.392 151.392 615.176 153.12C613.96 154.784 612.2 156.192 609.896 157.344C607.592 158.432 604.584 158.976 600.872 158.976H591.08C587.048 158.976 583.272 158.88 579.752 158.688C576.296 158.496 573.704 158.336 571.976 158.208V176.544H559.304ZM571.976 149.76H598.088C600.968 149.76 602.952 149.056 604.04 147.648C605.128 146.24 605.672 144.544 605.672 142.56V136.512C605.672 134.464 605.128 132.736 604.04 131.328C602.952 129.92 601 129.216 598.184 129.216H571.976V149.76ZM631.75 176.544V120.096H691.462V129.312H644.422V142.56H680.326V152.064H644.422V167.328H691.846L695.686 175.488C695.686 175.744 694.822 176 693.094 176.256C691.366 176.448 688.39 176.544 684.166 176.544H631.75ZM766.594 177.504C764.034 177.504 761.506 177.12 759.01 176.352C756.578 175.52 753.794 173.536 750.658 170.4L743.746 163.488C740.93 160.608 737.826 158.496 734.434 157.152C731.106 155.808 726.914 155.136 721.858 155.136H718.882V176.544H706.21V127.776L705.25 120H747.778C751.874 120 755.074 120.544 757.378 121.632C759.746 122.72 761.474 124.16 762.562 125.952C763.714 127.68 764.45 129.536 764.77 131.52C765.09 133.504 765.25 135.392 765.25 137.184V139.008C765.25 140.416 765.058 141.984 764.674 143.712C764.29 145.44 763.554 147.136 762.466 148.8C761.378 150.464 759.81 151.872 757.762 153.024C755.778 154.176 753.154 154.848 749.89 155.04C750.722 155.488 751.778 156.192 753.058 157.152C754.338 158.048 755.65 159.04 756.994 160.128C758.402 161.216 759.682 162.208 760.834 163.104C761.986 164 762.882 164.64 763.522 165.024C765.826 166.368 767.874 167.296 769.666 167.808C771.458 168.32 772.93 168.608 774.082 168.672C775.234 168.736 775.906 168.768 776.098 168.768L774.178 176.544C773.602 176.736 772.642 176.928 771.298 177.12C769.954 177.376 768.386 177.504 766.594 177.504ZM733.282 146.4C735.714 146.4 737.89 146.368 739.81 146.304C741.73 146.176 743.458 146.048 744.994 145.92C747.81 145.6 749.762 144.832 750.85 143.616C752.002 142.336 752.578 140.704 752.578 138.72V136.512C752.578 134.464 752.034 132.736 750.946 131.328C749.858 129.92 747.906 129.216 745.09 129.216H718.882V145.92C721.698 146.112 724.29 146.24 726.658 146.304C729.026 146.368 731.234 146.4 733.282 146.4Z" fill="#AFAFAF" fill-opacity="0.2"/>
</g>
<g filter="url(#filter1_d_386_4037)">
<path d="M95.96 151.544V102.776L95 95.096H139.544C144.728 95.096 148.696 95.736 151.448 97.016C154.264 98.296 156.216 100.216 157.304 102.776C158.392 105.272 158.936 108.408 158.936 112.184V134.36C158.936 138.2 158.392 141.4 157.304 143.96C156.28 146.456 154.36 148.344 151.544 149.624C148.792 150.904 144.792 151.544 139.544 151.544H95.96ZM108.632 142.328H138.776C143.704 142.328 146.2 140.056 146.264 135.512V111.032C146.264 109.176 145.72 107.608 144.632 106.328C143.544 104.984 141.592 104.312 138.776 104.312H108.632V142.328ZM172.344 151.544V95.096H232.056V104.312H185.016V117.56H220.92V127.064H185.016V142.328H232.44L236.28 150.488C236.28 150.744 235.416 151 233.688 151.256C231.96 151.448 228.984 151.544 224.76 151.544H172.344ZM265.908 151.544L239.124 95.192H252.564L270.612 134.072L273.204 140.984H274.068L276.564 134.072L294.804 95.192H307.86L306.324 100.952L281.268 151.544H265.908ZM316.531 151.544V95.096H376.243V104.312H329.203V117.56H365.107V127.064H329.203V142.328H376.627L380.467 150.488C380.467 150.744 379.603 151 377.875 151.256C376.147 151.448 373.171 151.544 368.947 151.544H316.531ZM390.031 151.544L390.991 143.864V95.096H403.663V142.328H443.407L447.247 150.488C447.247 150.744 446.383 151 444.655 151.256C442.927 151.448 439.951 151.544 435.727 151.544H390.031ZM472.452 151.544C467.972 151.544 464.452 150.904 461.892 149.624C459.332 148.344 457.508 146.424 456.42 143.864C455.396 141.304 454.884 138.136 454.884 134.36V112.184C454.884 108.472 455.396 105.368 456.42 102.872C457.444 100.312 459.236 98.392 461.796 97.112C464.356 95.768 467.908 95.096 472.452 95.096H500.484C504.964 95.096 508.452 95.768 510.948 97.112C513.508 98.392 515.3 100.312 516.324 102.872C517.412 105.368 517.956 108.472 517.956 112.184V134.36C517.956 139.992 516.708 144.28 514.212 147.224C511.716 150.104 507.14 151.544 500.484 151.544H472.452ZM475.236 142.328H497.796C500.164 142.328 501.988 141.72 503.268 140.504C504.612 139.288 505.284 137.624 505.284 135.512V111.032C505.284 109.176 504.612 107.608 503.268 106.328C501.924 104.984 500.1 104.312 497.796 104.312H475.236C472.932 104.312 471.076 104.92 469.668 106.136C468.26 107.352 467.556 108.984 467.556 111.032V135.512C467.556 137.688 468.228 139.384 469.572 140.6C470.98 141.752 472.868 142.328 475.236 142.328ZM533.304 151.544V102.776L532.344 95H574.872C578.968 95 582.168 95.544 584.472 96.632C586.84 97.72 588.568 99.16 589.656 100.952C590.808 102.68 591.544 104.536 591.864 106.52C592.184 108.504 592.344 110.392 592.344 112.184V117.848C592.344 119.32 592.12 120.984 591.672 122.84C591.224 124.632 590.392 126.392 589.176 128.12C587.96 129.784 586.2 131.192 583.896 132.344C581.592 133.432 578.584 133.976 574.872 133.976H565.08C561.048 133.976 557.272 133.88 553.752 133.688C550.296 133.496 547.704 133.336 545.976 133.208V151.544H533.304ZM545.976 124.76H572.088C574.968 124.76 576.952 124.056 578.04 122.648C579.128 121.24 579.672 119.544 579.672 117.56V111.512C579.672 109.464 579.128 107.736 578.04 106.328C576.952 104.92 575 104.216 572.184 104.216H545.976V124.76ZM605.75 151.544V95.096H665.462V104.312H618.422V117.56H654.326V127.064H618.422V142.328H665.846L669.686 150.488C669.686 150.744 668.822 151 667.094 151.256C665.366 151.448 662.39 151.544 658.166 151.544H605.75ZM740.594 152.504C738.034 152.504 735.506 152.12 733.01 151.352C730.578 150.52 727.794 148.536 724.658 145.4L717.746 138.488C714.93 135.608 711.826 133.496 708.434 132.152C705.106 130.808 700.914 130.136 695.858 130.136H692.882V151.544H680.21V102.776L679.25 95H721.778C725.874 95 729.074 95.544 731.378 96.632C733.746 97.72 735.474 99.16 736.562 100.952C737.714 102.68 738.45 104.536 738.77 106.52C739.09 108.504 739.25 110.392 739.25 112.184V114.008C739.25 115.416 739.058 116.984 738.674 118.712C738.29 120.44 737.554 122.136 736.466 123.8C735.378 125.464 733.81 126.872 731.762 128.024C729.778 129.176 727.154 129.848 723.89 130.04C724.722 130.488 725.778 131.192 727.058 132.152C728.338 133.048 729.65 134.04 730.994 135.128C732.402 136.216 733.682 137.208 734.834 138.104C735.986 139 736.882 139.64 737.522 140.024C739.826 141.368 741.874 142.296 743.666 142.808C745.458 143.32 746.93 143.608 748.082 143.672C749.234 143.736 749.906 143.768 750.098 143.768L748.178 151.544C747.602 151.736 746.642 151.928 745.298 152.12C743.954 152.376 742.386 152.504 740.594 152.504ZM707.282 121.4C709.714 121.4 711.89 121.368 713.81 121.304C715.73 121.176 717.458 121.048 718.994 120.92C721.81 120.6 723.762 119.832 724.85 118.616C726.002 117.336 726.578 115.704 726.578 113.72V111.512C726.578 109.464 726.034 107.736 724.946 106.328C723.858 104.92 721.906 104.216 719.09 104.216H692.882V120.92C695.698 121.112 698.29 121.24 700.658 121.304C703.026 121.368 705.234 121.4 707.282 121.4Z" fill="white"/>
</g>
<defs>
<filter id="filter0_d_386_4037" x="26" y="25" width="855.098" height="257.504" filterUnits="userSpaceOnUse" color-interpolation-filters="sRGB">
<feFlood flood-opacity="0" result="BackgroundImageFix"/>
<feColorMatrix in="SourceAlpha" type="matrix" values="0 0 0 0 0 0 0 0 0 0 0 0 0 0 0 0 0 0 127 0" result="hardAlpha"/>
<feOffset dx="5" dy="5"/>
<feGaussianBlur stdDeviation="50"/>
<feComposite in2="hardAlpha" operator="out"/>
<feColorMatrix type="matrix" values="0 0 0 0 0 0 0 0 0 0 0 0 0 0 0 0 0 0 0.25 0"/>
<feBlend mode="normal" in2="BackgroundImageFix" result="effect1_dropShadow_386_4037"/>
<feBlend mode="normal" in="SourceGraphic" in2="effect1_dropShadow_386_4037" result="shape"/>
</filter>
<filter id="filter1_d_386_4037" x="0" y="0" width="855.098" height="257.504" filterUnits="userSpaceOnUse" color-interpolation-filters="sRGB">
<feFlood flood-opacity="0" result="BackgroundImageFix"/>
<feColorMatrix in="SourceAlpha" type="matrix" values="0 0 0 0 0 0 0 0 0 0 0 0 0 0 0 0 0 0 127 0" result="hardAlpha"/>
<feOffset dx="5" dy="5"/>
<feGaussianBlur stdDeviation="50"/>
<feComposite in2="hardAlpha" operator="out"/>
<feColorMatrix type="matrix" values="0 0 0 0 0 0 0 0 0 0 0 0 0 0 0 0 0 0 0.25 0"/>
<feBlend mode="normal" in2="BackgroundImageFix" result="effect1_dropShadow_386_4037"/>
<feBlend mode="normal" in="SourceGraphic" in2="effect1_dropShadow_386_4037" result="shape"/>
</filter>
</defs>
</svg>
